/* XPM */
static char *dummy[]={
"32 32 401 2",
"Qt c None",
"en c #000000",
".# c #000000",
"eo c #000000",
".a c #000000",
".b c #000000",
"d2 c #010102",
"em c #010202",
".e c #060606",
".i c #0c0c0d",
".G c #0e0f10",
".9 c #121213",
"#A c #151516",
"#3 c #181818",
"au c #1a1b1b",
"aY c #1e1e1f",
".c c #161718",
"dz c #121314",
"d1 c #131315",
"bn c #212121",
"bR c #242424",
"d3 c #1a1b1d",
"el c #1b1c1e",
"cg c #262626",
"bT c #000000",
"bU c #010101",
"cm c #020203",
"cn c #040404",
"bX c #040405",
"bY c #060606",
"co c #060607",
"bZ c #070809",
"bx c #0a0a0b",
"a6 c #0b0c0d",
"bt c #0f1113",
"cp c #131417",
"bq c #151516",
"cj c #171717",
"cl c #171718",
"ci c #181819",
"aE c #1a1b1c",
"dy c #1a1b1d",
"bw c #1b1c1d",
"c7 c #1b1c1e",
"a3 c #1b1e21",
"bp c #1d1d1e",
"a0 c #202122",
"br c #222223",
"aw c #222325",
"aF c #222426",
"c6 c #252526",
"bv c #252527",
"ck c #262627",
"cF c #262727",
"ay c #262a2f",
"aB c #262b30",
"cD c #272a2d",
"aC c #272a30",
"az c #272b30",
"cu c #282b30",
"aA c #282b31",
"cf c #292c2f",
"cv c #2a2c2e",
"d4 c #2a2c2f",
"d5 c #2a2c30",
"ak c #2b2e30",
"al c #2b2e31",
"bP c #2b2e32",
"d6 c #2c2e31",
"am c #2c2e32",
"an c #2c2f33",
"ao c #2c3033",
"bl c #2c3034",
"d7 c #2d2f32",
"ap c #2d3034",
"#S c #2e3134",
"aq c #2e3236",
"d8 c #2f3134",
"aV c #2f3236",
"ek c #303235",
"ar c #303438",
"cs c #30343a",
"ct c #30343b",
"cr c #30353b",
"cq c #30353c",
"aa c #313233",
"d9 c #313236",
"#r c #313336",
"#Z c #313438",
"b0 c #323334",
"ej c #323336",
"e. c #333437",
"ei c #333537",
".0 c #333639",
".1 c #33363a",
"#0 c #33363b",
".2 c #33373a",
".3 c #33373b",
"#J c #343536",
"e# c #343639",
"aN c #34373d",
".4 c #34383c",
"#I c #353637",
"eh c #353639",
".5 c #35383c",
".6 c #35393e",
"#H c #363738",
"#h c #363739",
"eg c #36373a",
"cz c #36383a",
"a4 c #36393c",
".7 c #363a3f",
"#K c #37383b",
"ef c #37393b",
"a2 c #373a3e",
"#R c #373b40",
"#8 c #373d45",
"#g c #38393a",
"ea c #38393c",
".d c #383a3d",
"ab c #383b3e",
"#f c #393a3b",
".Q c #393a3c",
"ee c #393a3d",
"eb c #3a3b3e",
"ed c #3a3c3e",
".P c #3b3c3d",
".O c #3b3c3e",
".R c #3b3e40",
"#i c #3b3e41",
"ec c #3c3d40",
".Z c #3c4046",
"aj c #3c4248",
"#F c #3c434b",
"#D c #3d3d3e",
".N c #3d3e3f",
"cE c #3d4043",
"#Q c #3d4249",
".M c #3e3f40",
"#q c #3e434a",
"aG c #3f353b",
"#b c #3f3f40",
".L c #3f4041",
"#P c #3f444b",
"aJ c #403b41",
"#a c #404041",
"ax c #404346",
".K c #414142",
"a1 c #414345",
"aR c #414448",
"#O c #41464d",
".J c #424343",
"#N c #42474e",
".Y c #424850",
"aM c #443a40",
"a5 c #444547",
"bs c #444649",
"bQ c #44474b",
"#M c #44484f",
".X c #444951",
"#L c #454a51",
".W c #454b53",
"#C c #47494b",
"bm c #474b4f",
"bV c #474b50",
"#7 c #474b51",
"#d c #474c51",
"#9 c #474c52",
".V c #474c55",
"#T c #48292c",
"#Y c #482c2f",
"cw c #484a4c",
"bu c #484a4d",
"aD c #484b4f",
".U c #484e56",
"#p c #484f58",
"a. c #494d51",
"aW c #494d52",
"## c #4a4c4f",
"#e c #4a4d51",
"#6 c #4a4e51",
".T c #4a5058",
"#o c #4a515a",
"#x c #4b2e31",
"aH c #4b2e34",
"cx c #4b4d4f",
"#c c #4b4e52",
".S c #4b515a",
"a# c #4c4e51",
".I c #4c4e52",
"as c #4c5055",
"#n c #4c525c",
"aK c #4d353a",
"#5 c #4d4f51",
"#1 c #4d5257",
"#m c #4e555f",
"aI c #4f2f34",
"cA c #4f5153",
"bW c #4f5154",
"#E c #4f5358",
"#G c #4f535a",
"#l c #4f5661",
"by c #505254",
"aU c #505358",
"#y c #50555a",
"aL c #513337",
".8 c #51575d",
"#k c #515963",
"#W c #52282b",
"ai c #524851",
"#V c #532629",
"cB c #535356",
"aQ c #53565a",
"#j c #535a65",
"#U c #542628",
"#X c #54272a",
"#v c #542a2d",
"af c #54505a",
"#s c #55282b",
"#u c #59282a",
"aO c #5b5b5e",
"ac c #5c545e",
"cI c #5c5c5c",
"#w c #5d282b",
"aP c #5d5256",
"aS c #5d5a5f",
"cJ c #5d5d5e",
"ag c #5e474f",
"aT c #5e565a",
"cK c #5e5e5f",
"cL c #5f5f60",
"cC c #614245",
"ah c #61424b",
"#t c #632527",
"b8 c #65686d",
"ad c #664a53",
"ae c #67474f",
"bE c #676b71",
"cy c #6a4042",
"cV c #6a6b6d",
"cW c #6b6c6e",
"bH c #6c5154",
"bd c #6c5c5f",
"cX c #6c6d70",
"bc c #6c6f75",
"b9 c #6d6d6f",
"cY c #6d6e71",
"bD c #6e7277",
"cZ c #6f7072",
".n c #6f737a",
".o c #6f737b",
".m c #6f747a",
"dA c #6f747d",
"c0 c #707173",
".l c #70747a",
".z c #70767e",
"c1 c #717275",
"cM c #717376",
".y c #71767d",
".A c #71767e",
".B c #71777f",
"c2 c #727476",
".C c #727880",
"c3 c #737578",
".f c #73777c",
".p c #737880",
".D c #737981",
"bA c #74777c",
".E c #747a82",
"bB c #75797e",
"cH c #777778",
".x c #777e87",
".w c #7d848f",
".v c #7e8590",
".u c #7f8691",
"cU c #808489",
"ba c #80848b",
".t c #808793",
".s c #818994",
"bL c #825f62",
".r c #828a95",
"bh c #83696d",
".k c #838890",
".q c #838b96",
"cb c #848284",
"b# c #84888e",
"b7 c #868a8f",
"b6 c #888b90",
"a9 c #888c91",
"bb c #888c93",
"a8 c #898d93",
"cT c #898e95",
".F c #898f98",
"b5 c #8a8d92",
"cS c #8a8f96",
"c4 c #8b8d8f",
"cR c #8c9097",
"b4 c #8d8f94",
"cQ c #8d9299",
"cP c #8e939a",
"b3 c #8f9195",
"dx c #8f939a",
"cO c #8f949c",
"dB c #8f97a2",
"dC c #9098a3",
"cN c #91959d",
"b2 c #929397",
"b. c #92969c",
"dD c #9299a4",
".j c #93969c",
"d0 c #939ba6",
"b1 c #949598",
"dE c #949ba6",
"bG c #95999f",
"dZ c #959ca7",
".H c #979ba0",
"dY c #979ea9",
"a7 c #989ba0",
"dF c #989ea9",
"c8 c #999da3",
"dX c #99a1ab",
"#. c #9b9ea3",
"dG c #9ba1ac",
"bF c #9c9fa5",
"dW c #9da5ae",
"#z c #9fa2a6",
"#B c #9fa2a7",
"dH c #9fa6af",
"dV c #a0a7b1",
"dI c #a2a9b3",
"#2 c #a3a6aa",
"dU c #a4abb4",
"bO c #a6696a",
"#4 c #a7aaae",
"dJ c #a7adb6",
"dT c #a7adb7",
"at c #a9abaf",
"bk c #aa7478",
"dK c #aab0b9",
"dS c #abb1ba",
"av c #aeafb3",
"aX c #aeb0b3",
"dL c #aeb4bc",
"ce c #b1a7a9",
"dM c #b2b7bf",
"dR c #b2b7c0",
"bK c #b46667",
"dw c #b4b9c0",
"aZ c #b5b6b9",
"dQ c #b5bac3",
"dN c #b6bbc3",
"dv c #b8bcc3",
"dO c #b9bec6",
"bJ c #ba0909",
"bN c #ba0c0c",
"bM c #ba2020",
"bo c #bababd",
"bg c #bb7477",
"bC c #bbbec2",
"dP c #bbc0c8",
"bI c #bc2d2e",
"du c #bcbfc6",
"bS c #bfbfc2",
"dt c #bfc3c9",
"c5 c #c1c1c4",
"ca c #c2b4b5",
".g c #c2c7ce",
"ch c #c3c3c5",
"bz c #c3c5c8",
"ds c #c3c7cd",
".h c #c3c7cf",
"cG c #c5c5c7",
"c9 c #c5c8ce",
"d. c #c6c9cf",
"dr c #c7cad0",
"d# c #c8cbd1",
"c# c #c99394",
"da c #c9ccd2",
"cd c #cb9899",
"c. c #cba6a7",
"dq c #cbced4",
"cc c #cca2a2",
"db c #ccced3",
"dc c #cdcfd5",
"dp c #cfd1d7",
"dd c #cfd2d7",
"be c #d13435",
"de c #d1d3d8",
"bi c #d32627",
"do c #d3d5da",
"df c #d4d6da",
"dg c #d6d8dd",
"dh c #d8dbdf",
"bj c #d90f0f",
"di c #dbdce0",
"dn c #dbdce1",
"bf c #dc0909",
"dj c #dddfe3",
"dk c #e0e1e5",
"dm c #e1e3e7",
"dl c #e2e4e7",
"QtQtQtQtQtQtQtQtQtQtQtQtQtQtQtQtQtQtQtQtQtQtQtQtQtQtQtQtQtQtQtQt",
"QtQtQtQtQtQtQtQtQtQtQtQtQtQtQtQtQtQtQtQtQtQtQtQtQtQtQtQtQtQtQtQt",
"QtQtQtQtQtQtQtQtQtQtQtQtQtQtQtQtQtQtQtQtQtQtQtQtQtQtQtQtQtQtQtQt",
"QtQtQtQtQtQtQtQtQtQtQtQtQtQtQtQtQtQtQtQtQtQtQtQtQtQtQtQtQtQtQtQt",
"QtQtQtQtQtQtQtQtQtQtQtQtQtQtQtQtQtQtQtQtQtQtQtQtQtQtQtQtQtQtQtQt",
"QtQtQtQtQtQtQtQtQtQtQtQtQtQtQtQtQtQtQtQtQtQtQtQtQtQtQtQtQtQtQtQt",
"QtQtQtQtQtQtQtQtQtQtQtQtQtQtQtQtQtQtQtQtQtQtQtQtQtQtQtQtQtQtQtQt",
"Qt.#.a.a.a.a.a.a.a.a.a.a.a.a.a.a.a.a.a.a.a.a.a.a.a.a.a.a.a.a.#Qt",
".b.c.d.d.d.d.d.d.d.d.d.d.d.d.d.d.d.d.d.d.d.d.d.d.d.d.d.d.d.d.c.b",
".e.f.g.h.h.h.h.h.h.h.h.h.h.h.h.h.h.h.h.h.h.h.h.h.h.h.h.h.h.g.f.e",
".i.j.k.l.m.m.m.m.n.m.o.p.q.r.s.t.u.v.w.x.y.z.A.B.B.C.C.D.E.F.j.i",
".G.H.I.J.K.L.M.N.O.P.Q.R.S.T.U.V.W.X.Y.Z.0.1.1.2.3.4.5.6.7.8.H.G",
".9#.###a#b#c#d#e#f#g#h#i#j#k#l#m#n#o#p#q#r#s#t#u#v#w#x.1.4#y#z.9",
"#A#B#C#D.N#E#F#G#H#I#J#K#L#M#N#O#P#q#Q#R#S#T#U#V#W#X#Y#Z#0#1#2#A",
"#3#4.O#5#6#7#8#9a.a#aaabacadaeafagahaiajakalalamanaoapaqarasat#3",
"auavawaxayazaAaBaCaDaEaFaGaHaIaJaKaLaMaN#iaOaPaQaRaSaTaUaVaWaXau",
"aYaZa0a1a2.4a3.4a4a5a6.Qa7a8a9b.b#babbbcbdbebfbgbhbibjbkblbmaZaY",
"bnbobpbqbrbsbtbubvbwbxbybzbAbBbCbDbEbFbGbHbIbJbKbLbMbNbObPbQbobn",
"bRbSbwbTbUa#bVbWbXbYbZb0b1b2b3b4b5b6b7b8b9c.c#cacbcccdcecfaRbSbR",
"cgchcibTbTcjckclcmcncocpcqcrcrcrcsctcscucvcwcxcyczcAcBcCcDcEchcg",
"cFcGcHcIcIcIcIcIcJcKcLcMcNcOcPcQcRcScTcUcVcWcXcYcZc0c1c2c3c4c5c6",
"c7c8c9d.d#dadbdcdddedfdgdhdidjdkdldmdjdndgdodpdqdrdsdtdudvdwdxdy",
"dzdAdBdCdDdEdFdGdHdIdJdKdLdMdNdOdPdOdQdRdLdSdTdUdVdWdXdYdZd0.Cd1",
"d2d3d4d4d4d5d6d7d8d9e.e#czeaebececedeeefegeheiejekd8d7d6alalelem",
"eneo.a.a.a.a.a.a.a.a.a.a.a.a.a.a.a.a.a.a.a.a.a.a.a.a.a.a.a.aeoen",
"QtQtQtQtQtQtQtQtQtQtQtQtQtQtQtQtQtQtQtQtQtQtQtQtQtQtQtQtQtQtQtQt",
"QtQtQtQtQtQtQtQtQtQtQtQtQtQtQtQtQtQtQtQtQtQtQtQtQtQtQtQtQtQtQtQt",
"QtQtQtQtQtQtQtQtQtQtQtQtQtQtQtQtQtQtQtQtQtQtQtQtQtQtQtQtQtQtQtQt",
"QtQtQtQtQtQtQtQtQtQtQtQtQtQtQtQtQtQtQtQtQtQtQtQtQtQtQtQtQtQtQtQt",
"QtQtQtQtQtQtQtQtQtQtQtQtQtQtQtQtQtQtQtQtQtQtQtQtQtQtQtQtQtQtQtQt",
"QtQtQtQtQtQtQtQtQtQtQtQtQtQtQtQtQtQtQtQtQtQtQtQtQtQtQtQtQtQtQtQt",
"QtQtQtQtQtQtQtQtQtQtQtQtQtQtQtQtQtQtQtQtQtQtQtQtQtQtQtQtQtQtQtQt"};
